<svg xmlns="http://www.w3.org/2000/svg" viewBox="0 0 469.9 429.06"><defs><style>.cls-1{fill:#1d1d1b;}.cls-2{fill:#0074b2;}</style></defs><title>port</title><g id="bw_LogoDockerDock"><rect class="cls-1" x="146.28" y="83.95" width="19.23" height="61.33" rx="8.98"/><rect class="cls-1" x="236.9" y="341.65" width="233" height="87" rx="8.98"/><rect class="cls-1" x="132.71" y="47.51" width="336.97" height="47.51" rx="8.98"/><rect class="cls-1" x="99.34" y="132.92" width="111.99" height="80.31" rx="8.98"/><rect class="cls-1" x="195.79" y="256.12" width="306.47" height="47.51" rx="8.98" transform="translate(20.63 559.96) rotate(-90)"/><rect class="cls-1" x="295.36" y="261.65" width="318.18" height="47.51" rx="8.98" transform="translate(120.53 670.91) rotate(-90)"/><path class="cls-1" d="M436.38,164H190.24a9,9,0,0,1-9-9V125.91c0-5,4.3-9,8-9.46L436.38,68.94a9,9,0,0,1,9,9V155A9,9,0,0,1,436.38,164Z" transform="translate(-48.51 -68.94)"/><path class="cls-1" d="M156.82,359,51.69,409.17a5.56,5.56,0,0,0-2.81,7L78.54,494.4A5.57,5.57,0,0,0,83.75,498H234.69a5.57,5.57,0,0,0,5.21-3.59l29.66-78.23a5.56,5.56,0,0,0-2.81-7L161.62,359A5.6,5.6,0,0,0,156.82,359Z" transform="translate(-48.51 -68.94)"/><path class="cls-1" d="M235.08,325.41v57.92l-73.41-36a5.55,5.55,0,0,0-4.9,0l-73.41,36V325.41a9,9,0,0,1,9-9H226.1A9,9,0,0,1,235.08,325.41Z" transform="translate(-48.51 -68.94)"/></g><g id="color_LogoDockerDock"><rect class="cls-2" x="146.28" y="83.95" width="19.23" height="61.33" rx="8.98"/><rect class="cls-2" x="236.9" y="341.65" width="233" height="87" rx="8.98"/><rect class="cls-2" x="132.71" y="47.51" width="336.97" height="47.51" rx="8.98"/><rect class="cls-2" x="99.34" y="132.92" width="111.99" height="80.31" rx="8.98"/><rect class="cls-2" x="195.79" y="256.12" width="306.47" height="47.51" rx="8.98" transform="translate(20.63 559.96) rotate(-90)"/><rect class="cls-2" x="295.36" y="261.65" width="318.18" height="47.51" rx="8.98" transform="translate(120.53 670.91) rotate(-90)"/><path class="cls-2" d="M436.38,164H190.24a9,9,0,0,1-9-9V125.91c0-5,4.3-9,8-9.46L436.38,68.94a9,9,0,0,1,9,9V155A9,9,0,0,1,436.38,164Z" transform="translate(-48.51 -68.94)"/><path class="cls-2" d="M156.82,359,51.69,409.17a5.56,5.56,0,0,0-2.81,7L78.54,494.4A5.57,5.57,0,0,0,83.75,498H234.69a5.57,5.57,0,0,0,5.21-3.59l29.66-78.23a5.56,5.56,0,0,0-2.81-7L161.62,359A5.6,5.6,0,0,0,156.82,359Z" transform="translate(-48.51 -68.94)"/><path class="cls-2" d="M235.08,325.41v57.92l-73.41-36a5.55,5.55,0,0,0-4.9,0l-73.41,36V325.41a9,9,0,0,1,9-9H226.1A9,9,0,0,1,235.08,325.41Z" transform="translate(-48.51 -68.94)"/></g></svg>