<?xml version="1.0" encoding="utf-8"?>
<!-- Generator: Adobe Illustrator 23.0.3, SVG Export Plug-In . SVG Version: 6.00 Build 0)  -->
<svg version="1.1" id="Ebene_1" xmlns="http://www.w3.org/2000/svg" xmlns:xlink="http://www.w3.org/1999/xlink" x="0px" y="0px"
	 viewBox="0 0 1000 1000" style="enable-background:new 0 0 1000 1000;" xml:space="preserve">
<style type="text/css">
	.st0{fill:#0074B2;}
</style>
<path class="st0" d="M138,419.5c-9.9,4.7-20,7.5-33.1,7.3c-12.1-0.7-25.1-4.3-34.3-15.9c-12.2-15.2-9.8-38.5,5.1-54.2
	c15-15.8,34-21.9,55.2-20.8c31.4,1.6,57.9,14.7,81.1,35.3c1.3,1.2,3.4,2.8,3.2,3.9c-0.3,2.4-3.1,1.4-4.9,1.8
	c-13.3,3-24.7,9.5-35.5,17.6C162.9,403.4,151.6,413,138,419.5L138,419.5z M773.9,633.2c54.5,12.6,108.9,13.4,163.4,2.1
	c0.2,8.5-6.2,13.9-14,17.7c-15.8,7.7-32.9,7.6-50,7.2c-4.3-0.1-7.1-0.4-8.4,5.6c-14.1,65.4-59.3,100.7-119.6,120.3
	c-23.4,7.5-47.6,10.7-72.4,10.7c-142.3-0.2-284.7-0.2-427,0.1c-14.4,0.1-26.9-5.1-39.9-9.7l0.4-3c43.7,0,87.3,0.1,130.8,0
	c13.3,0,26.7,0,39.5-4.2c6.8-2.2,21.9-13.5,11.3-16.6c-19.2-5.6-30.8,14.3-48,14.6c-50.8,0.7-101.7-0.8-152.5-1.7
	c-3-0.1-5.9-0.2-8.8-1.8c-45.7-24.8-80.2-58.8-90-112.1C75.3,589.8,117,507.2,180,484.7c27.7-10.1,56-11.5,84.6-9.7
	c0.2-18.3,0.8-36.8-0.7-55.1c-1.6-18.2-11.2-32.6-24.8-44.4c-18-15.7-39.1-26.6-59.6-38.3c-16.2-9.4-32.5-18.6-45.5-32.6
	c-20-21.6-20.6-50-2.3-72.9c19.9-24.9,46.5-30.6,76.1-27.9c18.7,1.8,35.7,8.7,48.8,22.9c13.8,14.7,20.4,33,23.4,52.7
	c2.8,18.4,0.7,36.6-3,54.7c-0.4,1.6-1.1,3.3,0,5.3c2.3-6.6,4.1-12.9,6.6-19c13.6-33.7,44.7-49.9,78.9-41.1
	c11.6,2.9,21,9.3,27.6,19.5c9.8,14.8,5.8,32.3-9.9,43.4c-10.9,7.7-23.2,9.9-36,11c-8.4,0.7-16.8,1.5-24.8,4.2
	c-25.2,8.5-39.8,25.8-41.5,52.5c-1.4,21.9-0.7,43.8-0.6,65.7l4.6,0.4c42.7,4.3,83.1,16.8,122.3,33.9c24.8,10.9,47.4,25.1,68.8,41.6
	c57.8,44.4,100.9,102.2,145,159.1c19,24.4,40.1,45.6,71.5,53.3c44.1,10.8,82.7-1.5,117.7-28.4c13.9-10.6,25.9-23.3,35.7-37.8
	c3.4-5,6.5-10.3,9-15.9c8.2-18.8,6.1-22.1-13.8-22.1c-15.7,0-31.4-0.1-46.2-6.4C782.4,649.3,774.8,643.6,773.9,633.2L773.9,633.2z
	 M345.7,718.4c0.9-11.7-8.1-22.9-20-24.3c-13.5-1.5-22.3,6.5-24.3,23.1c7-5.3,13.9-8.1,20.3-1.3c8.1,8.9,0,15.4-4.7,22.3
	C334,739.6,344.5,732.2,345.7,718.4L345.7,718.4z"/>
</svg>
