<?xml version="1.0" encoding="utf-8"?>
<!-- Generator: Adobe Illustrator 23.0.3, SVG Export Plug-In . SVG Version: 6.00 Build 0)  -->
<svg version="1.1" id="Ebene_1" xmlns="http://www.w3.org/2000/svg" xmlns:xlink="http://www.w3.org/1999/xlink" x="0px" y="0px"
	 viewBox="0 0 1000 1000" style="enable-background:new 0 0 1000 1000;" xml:space="preserve">
<style type="text/css">
	.st0{fill:#0074B2;}
</style>
<path class="st0" d="M137.7,419.6c13.6-6.5,24.9-16.1,36.8-25c10.8-8.1,22.2-14.6,35.5-17.6c1.8-0.4,4.6,0.6,4.9-1.8
	c0.2-1.1-1.9-2.7-3.2-3.9c-23.2-20.6-49.7-33.7-81.1-35.3c-21.2-1.1-40.2,5-55.2,20.8c-14.9,15.7-17.3,39-5.1,54.2
	c9.2,11.6,22.2,15.2,34.3,15.9C117.7,427.1,127.8,424.3,137.7,419.6L137.7,419.6z M773.6,633.3c0.9,10.4,8.5,16.1,18,20.1
	c14.8,6.3,30.5,6.4,46.2,6.4c19.9,0,22,3.3,13.8,22.1c-2.5,5.6-5.6,10.9-9,15.9c-9.8,14.5-21.8,27.2-35.7,37.8
	c-35,26.9-73.6,39.2-117.7,28.4c-31.4-7.7-52.5-28.9-71.5-53.3c-44.1-56.9-87.2-114.7-145-159.1c-21.4-16.5-44-30.7-68.8-41.6
	c-39.2-17.1-79.6-29.6-122.3-33.9l-4.6-0.4c-0.1-21.9-0.8-43.8,0.6-65.7c1.7-26.7,16.3-44,41.5-52.5c8-2.7,16.4-3.5,24.8-4.2
	c12.8-1.1,25.1-3.3,36-11c15.7-11.1,19.7-28.6,9.9-43.4c-6.6-10.2-16-16.6-27.6-19.5c-34.2-8.8-65.3,7.4-78.9,41.1
	c-2.5,6.1-4.3,12.4-6.6,19c-1.1-2-0.4-3.7,0-5.3c3.7-18.1,5.8-36.3,3-54.7c-3-19.7-9.6-38-23.4-52.7c-13.1-14.2-30.1-21.1-48.8-22.9
	c-29.6-2.7-56.2,3-76.1,27.9c-18.3,22.9-17.7,51.3,2.3,72.9c13,14,29.3,23.2,45.5,32.6c20.5,11.7,41.6,22.6,59.6,38.3
	c13.6,11.8,23.2,26.2,24.8,44.4c1.5,18.3,0.9,36.8,0.7,55.1c-28.6-1.8-56.9-0.4-84.6,9.7c-63,22.5-104.7,105.1-91.3,177.7
	c9.8,53.3,44.3,87.3,90,112.1c2.9,1.6,5.8,1.7,8.8,1.8c50.8,0.9,101.7,2.4,152.5,1.7c17.2-0.3,28.8-20.2,48-14.6
	c10.6,3.1-4.5,14.4-11.3,16.6c-12.8,4.2-26.2,4.2-39.5,4.2c-43.5,0.1-87.1,0-130.8,0l-0.4,3c13,4.6,25.5,9.8,39.9,9.7
	c142.3-0.3,284.7-0.3,427-0.1c24.8,0,49-3.2,72.4-10.7c60.3-19.6,105.5-54.9,119.6-120.3c1.3-6,4.1-5.7,8.4-5.6
	c17.1,0.4,34.2,0.5,50-7.2c7.8-3.8,14.2-9.2,14-17.7C882.5,646.7,828.1,645.9,773.6,633.3L773.6,633.3z M345.4,725
	c-0.8,9.3-7.9,14.3-19.4,13.4c3.2-4.7,8.7-9.1,3.2-15.1c-4.3-4.6-9-2.7-13.7,0.9c1.3-11.2,7.3-16.6,16.4-15.6
	C339.9,709.5,346,717.1,345.4,725L345.4,725z"/>
</svg>
